<svg id="Capa_1" enable-background="new 0 0 512 512" height="512" viewBox="0 0 512 512" width="512" xmlns="http://www.w3.org/2000/svg"><g><g><path d="m98.754 245.546c-3.363 6.763-5.254 14.388-5.254 22.454 0 11.984 4.179 22.988 11.155 31.645 3.221 3.997 3.221 9.714 0 13.711-6.976 8.656-11.155 19.66-11.155 31.644 0 25.402 18.757 47.254 43.175 50.944l119.323 54.776 119.328-54.776c24.418-3.69 43.175-25.542 43.175-50.944 0-11.984-4.179-22.988-11.155-31.645-3.221-3.997-3.221-9.714 0-13.711 6.976-8.657 11.155-19.661 11.155-31.645 0-8.066-1.891-15.691-5.254-22.454h-314.493z" fill="#5d5360"/><path d="m407.34 313.36c6.98 8.65 11.16 19.66 11.16 31.64 0 25.4-18.76 47.25-43.17 50.94h-30c24.41-3.69 43.17-25.54 43.17-50.94 0-11.98-4.18-22.99-11.16-31.64-3.22-4-3.22-9.72 0-13.72 6.98-8.65 11.16-19.66 11.16-31.64 0-4.04-.47-7.96-1.36-11.72-.9-3.76-2.21-7.35-3.89-10.73h30c1.68 3.38 2.99 6.97 3.89 10.73.89 3.76 1.36 7.68 1.36 11.72 0 11.98-4.18 22.99-11.16 31.64-3.22 4-3.22 9.72 0 13.72z" fill="#514a54"/><path d="m184.755 372.407h142.485v34.516h-142.485z" fill="#edebed"/><path d="m354.5 392.5c44.183 0 80 35.817 80 80v12c0 11.046-8.954 20-20 20h-317c-11.046 0-20-8.954-20-20v-12c0-44.183 35.817-80 80-80z" fill="#fcf1f2"/><path d="m434.5 472.5v12c0 11.05-8.95 20-20 20h-30c11.05 0 20-8.95 20-20v-12c0-44.18-35.82-80-80-80h30c44.18 0 80 35.82 80 80z" fill="#f4e5e0"/><path d="m212.5 432.186-27.745-39.686h27.745v-60.314h87v60.314h21.245l-21.245 39.686z" fill="#bc845e"/><path d="m214.51 504.5h-117.01c-11.05 0-20-8.95-20-20v-12c0-23.86 10.45-45.29 27.02-59.93z" fill="#fc8d94"/><path d="m434.5 472.5v12c0 11.05-8.95 20-20 20h-117l109.99-91.93c16.56 14.65 27.01 36.07 27.01 59.93z" fill="#fc8d94"/><path d="m434.5 472.5v12c0 11.05-8.95 20-20 20h-30c11.05 0 20-8.95 20-20v-12c0-16.92-5.26-32.62-14.23-45.54l17.22-14.39c16.56 14.65 27.01 36.07 27.01 59.93z" fill="#fa6f7c"/><path d="m342.104 413.458-48.261 40.496c-6.346 5.325-15.807 4.497-21.132-1.849l-16.712-19.917 71.242-59.779 16.712 19.917c5.325 6.345 4.497 15.807-1.849 21.132z" fill="#fff"/><path d="m169.891 413.456 48.261 40.496c6.346 5.325 15.807 4.497 21.132-1.849l16.712-19.917-71.242-59.779-16.712 19.917c-5.325 6.346-4.497 15.807 1.849 21.132z" fill="#fff"/><path d="m363.5 198.5h26.5c16.845 0 30.5 13.655 30.5 30.5 0 16.845-13.655 30.5-30.5 30.5h-26.5z" fill="#bc845e"/><path d="m158.5 198.5h-36.5c-16.845 0-30.5 13.655-30.5 30.5 0 16.845 13.655 30.5 30.5 30.5h36.5z" fill="#bc845e"/><path d="m138.5 148.5v91.5c0 64.893 52.606 117.5 117.5 117.5 64.893 0 117.5-52.607 117.5-117.5v-91.5z" fill="#d19a6e"/><path d="m373.5 148.5v91.5c0 32.44-13.15 61.82-34.42 83.08-21.26 21.27-50.64 34.42-83.08 34.42-5.08 0-10.09-.32-15-.95 26.45-3.37 50.15-15.53 68.08-33.47 21.27-21.26 34.42-50.64 34.42-83.08v-91.5z" fill="#bc845e"/><path d="m226 259.5h-30c-8.284 0-15-6.716-15-15v-20c0-8.284 6.716-15 15-15h30c8.284 0 15 6.716 15 15v20c0 8.284-6.716 15-15 15z" fill="#cdf2f9"/><path d="m316 259.5h-30c-8.284 0-15-6.716-15-15v-20c0-8.284 6.716-15 15-15h30c8.284 0 15 6.716 15 15v20c0 8.284-6.716 15-15 15z" fill="#cdf2f9"/><path d="m418.5 186c0 4.38-.57 8.63-1.64 12.67-.95 3.58-2.28 7-3.95 10.21-5.59-6.37-13.78-10.38-22.91-10.38h-16.5v-12.18c0-7.47-7.89-12.31-14.54-8.9-19.33 9.91-38.66 8.15-57.99-5.27-3.5-2.43-8.1-2.43-11.61 0-22.24 15.44-44.48 15.44-66.72 0-3.51-2.43-8.11-2.43-11.61 0-19.33 13.42-38.66 15.18-57.99 5.27-6.65-3.41-14.54 1.43-14.54 8.9v12.18h-16.5c-9.13 0-17.32 4.01-22.91 10.38-3.57-6.84-5.59-14.62-5.59-22.88 0-6.39 1.21-12.5 3.42-18.1 2.2-5.6 5.4-10.71 9.38-15.1 1.71-1.89 2.59-4.28 2.59-6.7 0-1.88-.53-3.77-1.6-5.44-4.93-7.7-7.79-16.84-7.79-26.66 0-12.47 4.61-23.86 12.22-32.56 7.61-8.71 18.22-14.72 30.21-16.43 4-.58 7.15-3.59 8.17-7.5 5.53-21.29 24.88-37.01 47.9-37.01 5.14 0 10.1.79 14.76 2.25 3.4 1.06 7.11.25 9.73-2.17 8.82-8.12 20.58-13.08 33.51-13.08 6.46 0 12.64 1.24 18.3 3.5 5.66 2.25 10.8 5.52 15.21 9.58 2.62 2.42 6.33 3.23 9.73 2.17 4.66-1.46 9.62-2.25 14.76-2.25 11.51 0 22.1 3.93 30.51 10.52 1.58 1.24 3.08 2.56 4.49 3.98 6.13 6.13 10.66 13.86 12.9 22.51.45 1.71 1.3 3.25 2.46 4.49 1.48 1.59 3.46 2.68 5.71 3.01 10.87 1.55 20.6 6.63 27.99 14.05 8.93 8.95 14.44 21.3 14.44 34.94 0 4.91-.72 9.65-2.05 14.12-1.33 4.48-3.27 8.69-5.74 12.54-1.07 1.67-1.6 3.56-1.6 5.44 0 2.42.88 4.81 2.59 6.7 7.95 8.78 12.8 20.42 12.8 33.2z" fill="#6f6571"/><path d="m418.5 186c0 4.38-.57 8.63-1.64 12.67-.95 3.58-2.28 7-3.95 10.21-5.59-6.37-13.78-10.38-22.91-10.38h-3.1c1.05-3.99 1.6-8.18 1.6-12.5 0-12.78-4.85-24.42-12.8-33.2-1.71-1.89-2.59-4.28-2.59-6.7 0-1.88.53-3.77 1.6-5.44 2.47-3.85 4.41-8.06 5.74-12.54 1.33-4.47 2.05-9.21 2.05-14.12 0-13.64-5.51-25.99-14.44-34.94-7.39-7.42-17.12-12.5-27.99-14.05-2.25-.33-4.23-1.42-5.71-3.01-1.16-1.24-2.01-2.78-2.46-4.49-2.24-8.65-6.77-16.38-12.9-22.51-1.41-1.42-2.91-2.74-4.49-3.98-4.59-3.6-9.83-6.4-15.51-8.2.08-.02.16-.04.24-.07 4.66-1.46 9.62-2.25 14.76-2.25 11.51 0 22.1 3.93 30.51 10.52 1.58 1.24 3.08 2.56 4.49 3.98 6.13 6.13 10.66 13.86 12.9 22.51.45 1.71 1.3 3.25 2.46 4.49 1.48 1.59 3.46 2.68 5.71 3.01 10.87 1.55 20.6 6.63 27.99 14.05 8.93 8.95 14.44 21.3 14.44 34.94 0 4.91-.72 9.65-2.05 14.12-1.33 4.48-3.27 8.69-5.74 12.54-1.07 1.67-1.6 3.56-1.6 5.44 0 2.42.88 4.81 2.59 6.7 7.95 8.78 12.8 20.42 12.8 33.2z" fill="#5d5360"/></g><g><path d="m396.961 396.017c17.514-10.372 29.039-29.676 29.039-51.017 0-13.186-4.551-26.095-12.815-36.351-1.003-1.246-1.003-3.054 0-4.299 8.264-10.255 12.815-23.164 12.815-36.35 0-6.708-1.148-13.267-3.386-19.524 3.416-5.7 5.386-12.361 5.386-19.476 0-7.784-2.356-15.026-6.388-21.059.992-2.385 1.833-4.845 2.498-7.351 1.254-4.735 1.89-9.644 1.89-14.591 0-14.157-5.235-27.736-14.739-38.232-.879-1.087-.81-2.034-.239-3.058 2.873-4.477 5.099-9.34 6.616-14.451 1.568-5.265 2.362-10.735 2.362-16.258 0-15.199-5.906-29.489-16.626-40.232-8.798-8.833-19.948-14.429-32.215-16.178-.982-.125-1.756-1.004-1.998-1.96-2.532-9.778-7.669-18.745-14.839-25.915-1.578-1.589-3.321-3.135-5.186-4.598-10.116-7.927-22.266-12.117-35.136-12.117-5.79 0-11.51.873-16.992 2.59-.853.267-1.775.066-2.418-.527-5.159-4.75-11.053-8.461-17.508-11.028-6.705-2.678-13.797-4.035-21.082-4.035-14.335 0-28.04 5.349-38.598 15.07-.636.586-1.56.784-2.4.523-5.491-1.72-11.212-2.593-17.002-2.593-25.958 0-48.641 17.528-55.157 42.617-.277 1.063-1.058 1.836-1.971 1.969-13.343 1.903-25.627 8.537-34.59 18.682-2.743 3.104-2.449 7.844.655 10.586s7.843 2.45 10.586-.655c6.605-7.476 15.649-12.364 25.484-13.766 6.915-1.003 12.548-6.117 14.353-13.038 4.801-18.485 21.513-31.395 40.64-31.395 4.268 0 8.479.642 12.528 1.91 5.956 1.857 12.489.393 17.042-3.813 7.773-7.156 17.87-11.097 28.43-11.097 5.371 0 10.592.998 15.529 2.97 4.755 1.89 9.096 4.625 12.892 8.12 4.562 4.212 11.094 5.677 17.062 3.817 4.038-1.265 8.249-1.907 12.517-1.907 9.483 0 18.434 3.085 25.879 8.92 1.376 1.08 2.655 2.212 3.818 3.383 5.297 5.297 9.081 11.897 10.95 19.116.761 2.891 2.226 5.554 4.223 7.691 2.668 2.866 6.259 4.755 10.141 5.325 9.047 1.29 17.254 5.411 23.74 11.922 7.899 7.917 12.249 18.444 12.249 29.643 0 4.073-.585 8.104-1.74 11.985-1.117 3.761-2.752 7.336-4.865 10.629-1.822 2.844-2.785 6.124-2.785 9.486 0 4.338 1.608 8.504 4.531 11.733 7.003 7.735 10.859 17.738 10.859 28.167 0 3.565-.453 7.094-1.332 10.497-5.741-3.487-12.474-5.497-19.668-5.497h-9v-4.68c0-6.145-3.131-11.727-8.375-14.932-5.238-3.2-11.625-3.442-17.084-.643-16.818 8.618-33.268 7.063-50.292-4.755-6.03-4.187-14.134-4.186-20.166 0-19.57 13.585-38.597 13.585-58.168 0-6.03-4.187-14.134-4.186-20.165 0-17.024 11.818-33.474 13.374-50.291 4.755-5.461-2.798-11.848-2.558-17.085.644-5.244 3.205-8.375 8.787-8.375 14.932v4.679h-9c-7.194 0-13.928 2.01-19.669 5.498-.873-3.398-1.33-6.904-1.33-10.498 0-5.313.975-10.477 2.9-15.357 1.854-4.719 4.531-9.027 7.96-12.811 2.921-3.228 4.529-7.394 4.529-11.732 0-3.362-.963-6.642-2.784-9.484-4.32-6.75-6.605-14.571-6.605-22.616 0-4.142-3.358-7.5-7.5-7.5s-7.5 3.358-7.5 7.5c0 10.918 3.103 21.535 8.975 30.706.574 1.024.643 1.972-.231 3.056-4.648 5.128-8.284 10.98-10.8 17.385-2.617 6.631-3.944 13.646-3.944 20.853 0 7.639 1.475 15.006 4.382 21.951-4.028 6.03-6.382 13.269-6.382 21.049 0 7.108 1.966 13.763 5.377 19.459-2.242 6.256-3.377 12.816-3.377 19.541 0 13.186 4.551 26.095 12.815 36.35 1.003 1.246 1.003 3.054 0 4.299-8.264 10.256-12.815 23.165-12.815 36.351 0 21.353 11.522 40.65 29.036 51.019-26.839 14.961-45.036 43.634-45.036 76.481v12c0 15.164 12.336 27.5 27.5 27.5h262.5c4.142 0 7.5-3.358 7.5-7.5s-3.358-7.5-7.5-7.5h-41.832l88.924-74.324c12.324 13.001 19.908 30.538 19.908 49.824v12c0 6.893-5.607 12.5-12.5 12.5h-19.5c-4.142 0-7.5 3.358-7.5 7.5s3.358 7.5 7.5 7.5h19.5c15.164 0 27.5-12.336 27.5-27.5v-12c0-32.848-18.198-61.522-45.039-76.483zm4.544-77.955c6.212 7.708 9.495 17.023 9.495 26.938 0 20.534-14.224 38.535-33.877 42.971-7.22-1.934-14.802-2.971-22.623-2.971h-6.904l-14.564-17.356c-1.409-1.712-3.575-2.734-5.792-2.736h-20.24v-10.794c35.619-15.982 62.445-48.164 71.054-87.114h11.946c7.516 0 14.523-2.202 20.427-5.983.374 2.294.573 4.625.573 6.983 0 9.915-3.283 19.23-9.495 26.939-5.398 6.699-5.398 16.423 0 23.123zm-145.506 104.335-35.999-30.207v-32.482c11.406 3.436 23.489 5.292 36 5.292s24.594-1.856 36-5.292v32.48zm-82.211-25.252 11.891-14.172 59.751 50.137-11.891 14.172c-1.288 1.535-3.096 2.476-5.092 2.65-1.998.173-3.94-.438-5.475-1.726l-48.261-40.496c-3.167-2.657-3.582-7.397-.923-10.565zm152.528-14.17 11.891 14.171c1.288 1.535 1.901 3.479 1.726 5.475-.174 1.996-1.116 3.804-2.65 5.091l-48.261 40.496c-3.169 2.658-7.909 2.243-10.566-.924l-11.891-14.172zm86.684-153.975c0 12.682-10.318 23-23 23h-9.579c.378-3.95.579-7.952.579-12v-3.5h9.5c4.142 0 7.5-3.358 7.5-7.5s-3.358-7.5-7.5-7.5h-9.5v-15.5h9c12.682 0 23 10.318 23 23zm-267-42.679c.31-2.164 1.555-2.932 3.619-2.226 21.896 11.219 43.996 9.274 65.685-5.783.929-.645 2.129-.645 3.059 0 24.974 17.336 50.3 17.336 75.274 0 .93-.645 2.131-.645 3.059 0 21.691 15.058 43.792 17.003 65.686 5.782 2.062-.705 3.308.063 3.618 2.227v53.679c0 60.654-49.346 110-110 110s-110-49.346-110-110zm-15 19.679v15.5h-9.5c-4.142 0-7.5 3.358-7.5 7.5s3.358 7.5 7.5 7.5h9.5v3.5c0 4.048.201 8.05.579 12h-9.579c-12.682 0-23-10.318-23-23s10.318-23 23-23zm-30 139c0-9.915 3.283-19.23 9.495-26.939 5.398-6.699 5.398-16.423 0-23.123-6.212-7.708-9.495-17.023-9.495-26.938 0-2.361.199-4.69.572-6.983 5.905 3.781 12.912 5.983 20.428 5.983h11.946c8.61 38.949 35.435 71.132 71.054 87.114v10.793h-20.245c-2.192 0-4.335 1.002-5.746 2.679l-14.612 17.414h-6.897c-7.82 0-15.402 1.037-22.621 2.971-19.658-4.435-33.879-22.424-33.879-42.971zm-16 139.5v-12c0-19.286 7.584-36.823 19.908-49.824l88.924 74.324h-96.332c-6.893 0-12.5-5.607-12.5-12.5zm132.222 12.5-100.764-84.22c11.586-7.988 25.595-12.697 40.684-12.771-.607 7.061 2.099 14.301 7.929 19.192l48.261 40.496c4.089 3.432 9.148 5.266 14.424 5.266.664 0 1.331-.029 2-.087 5.987-.523 11.412-3.348 15.275-7.952l10.967-13.07 10.968 13.071c3.863 4.604 9.288 7.428 15.275 7.952.669.059 1.335.087 1.999.087 5.275 0 10.335-1.834 14.424-5.266l48.261-40.495c5.83-4.892 8.536-12.133 7.929-19.194 15.091.073 29.101 4.782 40.689 12.771l-100.764 84.22z"/><path d="m287.754 283.621c-18.784 15.805-44.887 15.813-63.481.022-3.158-2.681-7.891-2.294-10.572.862-2.681 3.157-2.295 7.89.862 10.572 12.148 10.317 26.74 15.474 41.362 15.474 14.607 0 29.245-5.151 41.487-15.452 3.169-2.667 3.577-7.398.91-10.567-2.668-3.171-7.399-3.578-10.568-.911z"/><path d="m196 267h30c12.407 0 22.5-10.093 22.5-22.5v-3h15v3c0 12.407 10.093 22.5 22.5 22.5h30c12.407 0 22.5-10.093 22.5-22.5v-20c0-12.407-10.093-22.5-22.5-22.5h-30c-12.407 0-22.5 10.093-22.5 22.5v2h-15v-2c0-12.407-10.093-22.5-22.5-22.5h-30c-12.407 0-22.5 10.093-22.5 22.5v20c0 12.407 10.093 22.5 22.5 22.5zm82.5-42.5c0-4.136 3.364-7.5 7.5-7.5h30c4.136 0 7.5 3.364 7.5 7.5v20c0 4.136-3.364 7.5-7.5 7.5h-30c-4.136 0-7.5-3.364-7.5-7.5zm-90 0c0-4.136 3.364-7.5 7.5-7.5h30c4.136 0 7.5 3.364 7.5 7.5v20c0 4.136-3.364 7.5-7.5 7.5h-30c-4.136 0-7.5-3.364-7.5-7.5z"/></g></g></svg>